PathFileType	4	(X/Y/Z)	D:\Share\Shared_Data\Ergonomics\Sit To Stand Pertubation\S1\Perturbed_NoHarness.trc
DataRate	CameraRate	NumFrames	NumMarkers	Units	OrigDataRate	OrigDataStartFrame	OrigNumFrames	
100	100	6	18	m	100	2483	171
Frame#	Time	L_ASIS			R_ASIS			R_Pelvis			V_Sacral			L_Pelvis			Clavical			R_Acromium			L_Acromium			Sternum			Torso			R_Thigh_Med			R_Thigh_Lat			R_Thigh			R_Shank_Med			R_Shank_Lat			R_Shank			R_Heel			R_Toe			
		X1	Y1	Z1	X2	Y2	Z2	X3	Y3	Z3	X4	Y4	Z4	X5	Y5	Z5	X6	Y6	Z6	X7	Y7	Z7	X8	Y8	Z8	X9	Y9	Z9	X10	Y10	Z10	X11	Y11	Z11	X12	Y12	Z12	X13	Y13	Z13	X14	Y14	Z14	X15	Y15	Z15	X16	Y16	Z16	X17	Y17	Z17	X18	Y18	Z18	

2483	24.82	0.062552944	0.62150482	-0.092909859	-0.040714577	0.6476947	0.13897023	0.047153244	0.61402667	0.10818342	-0.1565535	0.61091681	0.011786556	-0.032969761	0.64582684	-0.13003613	0.26304358	0.85925922	0.0032945712	0.25977036	0.96169287	0.14139552	0.19217142	0.95370105	-0.1880977	0.25228941	0.88559949	0.10299056	0.26103018	0.87259247	-0.050518196	0.29127515	0.41688278	0.045911922	0.28950464	0.43605515	0.16563039	0.16457307	0.55717822	0.11505479	0.3222742	0.095856804	0.10058573	0.2986105	0.097687019	0.1784446	0.29178207	0.31017206	0.18767839	0.25834726	0.030769905	0.12166794	0.46427795	0.058494526	0.14380087
2484	24.83	0.067714539	0.62064764	-0.092396812	-0.035791111	0.64891687	0.13872523	0.051109806	0.61369342	0.10872017	-0.15228685	0.61374786	0.011415056	-0.027366791	0.6467793	-0.12956169	0.27271182	0.85504028	0.0032958217	0.27044971	0.95781171	0.14106874	0.20269606	0.95116199	-0.18804591	0.26166092	0.88172559	0.10296273	0.27013409	0.86851807	-0.050272457	0.29313611	0.41705621	0.046372959	0.29128546	0.43594818	0.16601213	0.16690968	0.55781201	0.11490146	0.32243277	0.095849808	0.10072483	0.2987525	0.097671288	0.17863107	0.29317554	0.31020496	0.18797289	0.25832153	0.030653719	0.12172815	0.46426505	0.058808777	0.14407426
2485	24.84	0.072974281	0.61987091	-0.091902245	-0.030603596	0.65010211	0.13837793	0.055029697	0.6134743	0.10928641	-0.14784715	0.6164212	0.010992687	-0.021658371	0.64766327	-0.12914043	0.28217419	0.85102124	0.0032642045	0.28077383	0.95410223	0.14076933	0.2129118	0.94867407	-0.18798874	0.27081198	0.87803271	0.10291362	0.27903256	0.86464325	-0.050057617	0.29529596	0.41719275	0.046781567	0.29333887	0.43583084	0.166358	0.16953723	0.55842419	0.11474916	0.32270224	0.095840508	0.10083704	0.29895886	0.097657913	0.17879572	0.29474609	0.31022995	0.18822278	0.25831442	0.030553326	0.12178081	0.4642735	0.059073875	0.14433475
2486	24.85	0.078300659	0.6191748	-0.091436432	-0.025258467	0.65123322	0.13796391	0.058977848	0.61335089	0.10984258	-0.14326012	0.61888684	0.010527247	-0.015888132	0.64845599	-0.1287829	0.29136847	0.84723724	0.0032036355	0.29069153	0.95060095	0.14049857	0.22276451	0.94625726	-0.18793172	0.2796936	0.87454987	0.102843	0.28768149	0.86100098	-0.04987458	0.29776422	0.41728036	0.047127724	0.29568085	0.43569919	0.16666064	0.17246317	0.55899707	0.11459299	0.32308456	0.095825401	0.1009192	0.29923184	0.097646057	0.17893471	0.29650046	0.31024271	0.18842194	0.25832608	0.030471096	0.12182552	0.46430368	0.059283489	0.14457864
2487	24.86	0.083665176	0.61855713	-0.091008614	-0.019840899	0.65229193	0.13751407	0.063001869	0.61330457	0.11035772	-0.13855008	0.62110223	0.010029079	-0.010096648	0.64913739	-0.12849734	0.30023508	0.84372406	0.003118428	0.30015564	0.94734454	0.14025536	0.23220457	0.94393286	-0.18788297	0.28826004	0.87130676	0.10275043	0.29603903	0.85762262	-0.049724815	0.30054395	0.41730771	0.04740202	0.29832391	0.4355488	0.16691249	0.17569162	0.55951471	0.11442667	0.32357748	0.09580088	0.10096838	0.29957245	0.097635315	0.17904439	0.29844385	0.31023907	0.18856465	0.25835614	0.030409241	0.12186217	0.46435464	0.059433079	0.14480278
2488	24.87	0.089043243	0.61801422	-0.090626419	-0.014414916	0.65326093	0.13705453	0.067132904	0.61331842	0.11080952	-0.13373897	0.62303522	0.0095104628	-0.0043197103	0.64969153	-0.12828902	0.30871948	0.84051691	0.0030129578	0.309125	0.94436908	0.14003629	0.24118855	0.9417243	-0.18785214	0.29647006	0.86833374	0.10263505	0.30406705	0.85453851	-0.049610069	0.3036311	0.4172645	0.047595547	0.30127567	0.43537469	0.16710568	0.17922273	0.55996326	0.11424323	0.32417471	0.095763329	0.10098176	0.29998047	0.097625763	0.17912128	0.30057993	0.31021558	0.18864558	0.25840378	0.03036974	0.12189088	0.46442468	0.059520069	0.14500449
